<?xml version="1.0" standalone="no"?>
<!DOCTYPE svg PUBLIC "-//W3C//DTD SVG 20010904//EN"
 "http://www.w3.org/TR/2001/REC-SVG-20010904/DTD/svg10.dtd">
<svg version="1.0" xmlns="http://www.w3.org/2000/svg"
 width="512.000000pt" height="512.000000pt" viewBox="0 0 512.000000 512.000000"
 preserveAspectRatio="xMidYMid meet">

<g transform="translate(0.000000,512.000000) scale(0.100000,-0.100000)"
fill="#000000" stroke="none">
<path d="M2430 5114 c-71 -10 -206 -47 -282 -79 -120 -51 -224 -120 -325 -218
-220 -213 -333 -472 -333 -767 0 -449 281 -852 703 -1010 30 -11 63 -30 75
-43 12 -12 48 -79 81 -147 32 -69 69 -135 80 -147 69 -72 183 -77 251 -10 18
18 58 86 91 156 33 69 69 136 81 148 12 13 45 32 75 43 157 59 292 149 411
275 142 151 230 321 272 525 28 133 24 340 -9 462 -84 319 -279 561 -566 704
-150 74 -271 104 -440 109 -71 2 -146 1 -165 -1z m325 -120 c337 -64 622 -322
728 -659 150 -480 -91 -984 -567 -1187 -65 -27 -112 -55 -135 -78 -21 -21 -64
-92 -103 -172 -71 -146 -84 -159 -143 -144 -21 5 -38 32 -93 144 -83 169 -109
197 -233 248 -341 141 -569 442 -611 805 -41 363 147 733 469 925 215 128 435
165 688 118z"/>
<path d="M1758 4290 c-16 -10 -18 -33 -18 -238 0 -244 2 -252 50 -252 43 0 50
16 50 117 0 90 1 93 23 93 17 0 33 -17 66 -72 69 -114 89 -138 116 -138 28 0
55 24 55 50 0 11 -20 52 -44 91 l-44 72 38 36 c68 64 64 164 -7 218 -34 26
-43 28 -152 31 -69 1 -123 -2 -133 -8z m225 -121 c22 -35 2 -49 -73 -49 l-70
0 0 35 0 36 66 -3 c48 -2 70 -7 77 -19z"/>
<path d="M2186 4284 c-14 -13 -16 -49 -16 -238 0 -159 3 -225 12 -234 8 -8 59
-12 164 -12 165 0 184 6 184 55 0 42 -34 55 -147 55 l-103 0 0 50 0 50 64 0
c73 0 99 16 94 59 -4 34 -39 51 -105 51 l-53 0 0 35 0 35 109 0 c118 0 141 9
141 54 0 49 -24 56 -183 56 -119 0 -148 -3 -161 -16z"/>
<path d="M2614 4286 c-18 -13 -19 -30 -22 -223 -3 -230 2 -256 51 -261 51 -6
57 9 57 142 l0 121 76 -115 c42 -63 83 -123 91 -132 21 -23 56 -23 76 0 15 16
17 48 17 234 0 195 -2 216 -18 231 -23 21 -41 21 -70 1 -21 -14 -22 -23 -22
-130 l0 -116 -81 124 c-45 67 -87 126 -93 130 -17 12 -40 9 -62 -6z"/>
<path d="M3037 4282 c-41 -45 -7 -92 66 -92 l47 0 0 -183 c0 -197 3 -207 51
-207 52 0 59 25 59 217 l0 173 41 0 c59 0 79 14 79 55 0 24 -6 38 -19 45 -11
5 -84 10 -164 10 -127 0 -146 -2 -160 -18z"/>
<path d="M1983 2546 c-113 -36 -215 -132 -257 -243 -14 -37 -44 -116 -66 -175
l-41 -106 -167 -4 c-181 -3 -199 -8 -256 -64 -58 -59 -82 -136 -65 -214 15
-70 57 -123 124 -155 44 -22 54 -31 48 -44 -4 -9 -9 -160 -11 -336 -3 -347 -1
-361 53 -435 24 -33 25 -39 25 -190 0 -147 1 -159 23 -191 12 -18 38 -44 56
-56 33 -22 42 -23 248 -23 241 0 263 5 311 68 21 28 27 48 30 103 l4 69 518 0
518 0 4 -69 c3 -55 9 -75 30 -103 48 -63 70 -68 311 -68 206 0 215 1 248 23
18 12 44 38 56 56 22 32 23 44 23 191 0 151 1 157 25 190 54 74 56 88 53 435
-2 176 -7 327 -11 336 -6 13 4 22 46 43 153 74 176 263 48 379 -54 49 -92 57
-263 57 l-146 0 -42 108 c-22 59 -52 138 -66 175 -35 91 -112 175 -202 219
l-67 33 -550 2 c-435 2 -559 -1 -592 -11z m1173 -118 c29 -15 68 -47 88 -70
l37 -43 -360 -3 c-199 -1 -523 -1 -722 0 l-360 3 36 43 c35 41 90 76 145 93
14 4 264 7 555 6 l530 -2 51 -27z m206 -338 c22 -58 64 -158 93 -222 l53 -118
-948 0 -949 0 41 88 c33 71 115 272 141 345 6 16 49 17 768 15 l761 -3 40
-105z m-1792 -175 c0 -3 -20 -45 -45 -94 -32 -65 -57 -99 -90 -126 -41 -34
-49 -37 -92 -32 -38 4 -54 12 -80 41 -28 30 -33 43 -33 84 0 54 17 84 64 113
26 16 51 19 154 19 67 0 122 -2 122 -5z m2250 -10 c48 -25 70 -62 70 -116 0
-42 -5 -55 -33 -85 -26 -29 -42 -37 -80 -41 -43 -5 -51 -2 -92 32 -33 27 -58
61 -90 126 -25 49 -45 91 -45 94 0 3 54 5 120 5 87 0 129 -4 150 -15z m-430
-282 c-70 -55 -154 -140 -225 -229 -79 -99 -130 -144 -196 -174 -41 -18 -67
-20 -409 -20 -342 0 -368 2 -409 20 -66 30 -117 75 -196 174 -71 89 -155 174
-225 229 l-35 27 865 0 865 0 -35 -27z m-1755 -59 c33 -24 78 -59 100 -78 l40
-36 -44 15 c-124 42 -269 -11 -329 -120 -17 -31 -15 127 2 168 7 18 37 54 67
79 61 53 48 56 164 -28z m2052 -6 c33 -35 43 -72 43 -156 -1 -62 -3 -73 -12
-57 -59 108 -215 166 -325 120 -20 -8 -38 -14 -40 -12 -5 6 96 88 171 138 l70
47 36 -28 c19 -15 45 -39 57 -52z m-1953 -212 c47 -35 66 -74 66 -131 0 -86
-42 -141 -125 -164 -73 -20 -165 27 -195 99 -17 42 -8 121 19 159 53 75 163
92 235 37z m1826 14 c52 -26 82 -72 88 -131 6 -60 -10 -100 -54 -139 -113 -98
-274 -25 -274 125 0 126 126 203 240 145z m-1464 -226 l59 -29 405 0 405 0 56
26 c33 16 88 57 132 98 l75 72 -10 -43 c-25 -112 47 -245 160 -294 22 -10 65
-17 107 -18 61 0 78 4 125 30 30 17 70 50 88 73 l32 43 0 -97 c0 -69 -5 -107
-16 -131 -38 -80 -211 -192 -313 -202 -48 -4 -49 -4 -60 30 -20 59 -76 114
-159 155 l-76 38 -545 0 -546 0 -59 -28 c-85 -40 -142 -89 -168 -148 l-23 -51
-48 5 c-99 9 -273 121 -311 201 -11 24 -16 62 -16 131 l0 97 33 -43 c17 -23
57 -56 87 -73 47 -26 64 -30 125 -30 42 1 85 8 107 18 113 49 185 182 160 294
l-10 43 72 -69 c41 -38 99 -82 132 -98z m1037 -373 c53 -26 107 -75 107 -97 0
-12 -99 -14 -680 -14 -538 0 -680 3 -680 13 1 17 19 38 61 70 75 56 70 56 629
54 l515 -2 48 -24z"/>
</g>
</svg>
